<?xml version="1.0" standalone="no"?>
<!DOCTYPE svg PUBLIC "-//W3C//DTD SVG 20010904//EN"
 "http://www.w3.org/TR/2001/REC-SVG-20010904/DTD/svg10.dtd">
<svg version="1.0" xmlns="http://www.w3.org/2000/svg"
 width="200.000000pt" height="74.000000pt" viewBox="0 0 200.000000 74.000000"
 preserveAspectRatio="xMidYMid meet">
<metadata>
Created by potrace 1.13, written by Peter Selinger 2001-2015
</metadata>
<g transform="translate(0.000000,74.000000) scale(0.100000,-0.100000)"
fill="#000000" stroke="none">
<path d="M856 703 c9 -16 33 -52 52 -80 l35 -53 496 1 c273 1 489 3 481 5 -26
7 -1043 154 -1063 154 -19 0 -19 -1 -1 -27z"/>
<path d="M367 695 c-4 -8 -3 -16 1 -18 4 -2 63 0 132 4 69 4 145 8 170 10 48
3 -122 16 -231 18 -50 1 -68 -3 -72 -14z"/>
<path d="M70 545 c-6 -15 -9 -29 -8 -31 5 -5 678 22 683 28 3 3 -102 8 -232
12 -131 3 -282 9 -335 13 l-97 6 -11 -28z"/>
<path d="M1127 540 l-188 -5 -84 -110 c-46 -60 -81 -111 -76 -113 7 -2 1123
224 1146 233 14 5 -571 2 -798 -5z"/>
<path d="M1433 412 l-381 -86 -7 -54 c-4 -29 -5 -56 -2 -58 3 -4 686 238 777
275 51 20 -14 7 -387 -77z"/>
<path d="M267 339 c-3 -13 -5 -25 -3 -27 4 -3 439 19 444 23 1 1 -68 5 -155 9
-87 3 -185 9 -219 12 -58 6 -61 5 -67 -17z"/>
<path d="M1560 171 l-75 -6 0 -78 c0 -71 2 -77 20 -77 18 0 20 5 17 35 -4 35
-4 35 37 35 30 0 41 4 41 15 0 11 -11 15 -41 15 -33 0 -40 3 -37 18 3 14 14
17 61 17 48 0 57 3 57 18 0 9 -1 16 -2 15 -2 -1 -37 -4 -78 -7z"/>
<path d="M15 90 c0 -73 2 -80 20 -80 16 0 20 7 20 33 0 31 1 32 50 35 56 4 75
15 75 46 0 37 -20 46 -94 46 l-71 0 0 -80z m131 39 c10 -17 -17 -30 -56 -27
-24 2 -36 8 -38 21 -3 14 4 17 42 17 25 0 48 -5 52 -11z"/>
<path d="M220 80 c0 -62 2 -70 19 -70 14 0 17 6 13 25 -4 21 -1 25 22 25 16 0
31 -9 42 -25 9 -14 25 -25 36 -25 19 0 19 1 -2 27 -18 23 -19 28 -5 35 8 5 15
20 15 34 0 30 -31 44 -96 44 l-44 0 0 -70z m110 25 c0 -11 -11 -15 -40 -15
-29 0 -40 4 -40 15 0 11 11 15 40 15 29 0 40 -4 40 -15z"/>
<path d="M420 80 c0 -60 3 -70 18 -70 15 0 17 10 17 70 0 60 -2 70 -17 70 -15
0 -18 -10 -18 -70z"/>
<path d="M520 80 c0 -56 3 -70 15 -70 11 0 15 12 15 47 l0 47 48 -47 c26 -26
53 -47 60 -47 8 0 12 22 12 70 0 56 -3 70 -15 70 -11 0 -15 -12 -15 -47 l0
-48 -46 48 c-63 66 -74 63 -74 -23z"/>
<path d="M710 135 c0 -10 10 -15 31 -15 l31 0 -4 -55 c-3 -47 0 -55 15 -55 14
0 17 9 17 55 0 52 1 55 25 55 16 0 25 6 25 15 0 12 -14 15 -70 15 -56 0 -70
-3 -70 -15z"/>
<path d="M996 127 c-53 -53 -21 -117 59 -117 109 0 116 122 8 137 -35 5 -45 2
-67 -20z m106 -32 c22 -48 -48 -88 -86 -49 -35 34 -12 74 41 74 26 0 36 -6 45
-25z"/>
<path d="M1180 80 c0 -56 3 -70 15 -70 11 0 15 12 15 47 l0 47 48 -47 c26 -26
53 -47 60 -47 8 0 12 22 12 70 0 56 -3 70 -15 70 -11 0 -15 -12 -15 -47 l0
-48 -46 48 c-63 66 -74 63 -74 -23z"/>
<path d="M1680 80 l0 -70 65 0 c37 0 65 4 65 10 0 6 -23 10 -51 10 l-51 0 4
60 c3 52 1 60 -14 60 -15 0 -18 -10 -18 -70z"/>
<path d="M1840 146 c0 -2 14 -20 30 -41 18 -22 30 -50 30 -66 0 -19 5 -29 15
-29 10 0 15 10 15 28 0 16 12 42 30 62 35 42 37 50 10 50 -11 0 -20 -6 -20
-13 0 -8 -9 -22 -19 -31 -18 -17 -20 -16 -37 13 -10 17 -26 31 -36 31 -10 0
-18 -2 -18 -4z"/>
</g>
</svg>
